<svg width="3404" height="2102" viewBox="0 0 3404 2102" fill="none" xmlns="http://www.w3.org/2000/svg">
<g clip-path="url(#clip0_397_2073)">
<path d="M3173.98 1498.23C2507.65 1137.3 1450.01 1624.34 1860.03 1242.08C1948.67 1159.43 2026.82 1083.75 2095.36 1014.62C1973.71 1005.32 1849.42 1002.68 1726.27 1005.49C1705.2 1052.11 1689.56 1099.67 1680.86 1147.52C1558.88 1817.68 1548.66 1621.79 822.714 1273.75C745.366 1236.67 675.254 1210.84 612.307 1193.91C566.407 1212.63 527.859 1231.9 497.981 1251.3C60.4427 1535.4 84.4717 1051.94 612.307 1193.91C848.666 1097.51 1279.97 1015.68 1726.27 1005.49C1992.18 416.946 3122.93 -21.7022 2095.36 1014.62C2569.82 1050.89 3004.13 1188.37 3173.98 1498.23Z" fill="url(#paint0_linear_397_2073)"/>
<path d="M3173.98 1498.23C2507.65 1137.3 1450.01 1624.34 1860.03 1242.08C3382.9 -177.702 1806.82 455.41 1680.86 1147.52C1558.88 1817.68 1548.66 1621.79 822.714 1273.75C96.7673 925.712 8.2642 1569.28 497.981 1251.3C889.754 996.914 2772.09 765.091 3173.98 1498.23Z" stroke="url(#paint1_linear_397_2073)"/>
</g>
<defs>
<linearGradient id="paint0_linear_397_2073" x1="-293.696" y1="1448.5" x2="3231.19" y2="55.0413" gradientUnits="userSpaceOnUse">
<stop/>
<stop offset="1" stop-color="#474747"/>
</linearGradient>
<linearGradient id="paint1_linear_397_2073" x1="2795.06" y1="2011.08" x2="756.055" y2="504.522" gradientUnits="userSpaceOnUse">
<stop/>
<stop offset="1" stop-color="#666666"/>
</linearGradient>
<clipPath id="clip0_397_2073">
<rect width="3404" height="2102" fill="white"/>
</clipPath>
</defs>
</svg>
