<svg width="6217" height="2102" viewBox="0 0 6217 2102" fill="none" xmlns="http://www.w3.org/2000/svg">
<path d="M104 1527.49C766.427 1434.19 1261.85 533.565 1171.27 1020.06C1151.69 1125.24 1135.91 1219.98 1123.51 1305.01C1214.76 1247.8 1304.39 1184.47 1390.36 1117.87C1380.85 1073.72 1367 1031.75 1348.09 993.21C1083.12 453.413 1193.15 587.135 1891.14 453.413C1965.51 439.165 2028.84 420.721 2082.41 399.72C2105.18 362.35 2122.44 328.447 2133.48 298.999C2295.09 -132.24 2531.65 223.621 2082.41 399.72C1965.17 592.155 1701.88 876.515 1390.36 1117.87C1510.3 1675.23 937.593 2579.84 1123.51 1305.01C767.626 1528.16 387.145 1658.38 104 1527.49Z" fill="url(#paint0_linear_386_2296)"/>
<path d="M104 1527.49C766.427 1434.19 1261.85 533.565 1171.27 1020.06C834.851 2826.98 1621.73 1550.68 1348.09 993.21C1083.12 453.413 1193.15 587.135 1891.14 453.413C2589.14 319.691 2314.36 -183.668 2133.48 298.999C1988.77 685.132 773.936 1837.18 104 1527.49Z" stroke="url(#paint1_linear_386_2296)"/>
<path d="M2466.75 1978L2361.75 1853C2303 1881.75 2235.5 1898 2161.75 1898C1909.25 1898 1724.25 1710.5 1724.25 1445.5C1724.25 1180.5 1909.25 993 2161.75 993C2414.25 993 2599.25 1180.5 2599.25 1445.5C2599.25 1575.5 2555.5 1686.75 2480.5 1765.5L2579.25 1884.25L2466.75 1978ZM1886.75 1445.5C1886.75 1631.75 2000.5 1751.75 2161.75 1751.75C2198 1751.75 2231.75 1745.5 2261.75 1734.25L2115.5 1559.25L2228 1465.5L2378 1644.25C2415.5 1593 2436.75 1525.5 2436.75 1445.5C2436.75 1259.25 2321.75 1139.25 2161.75 1139.25C2000.5 1139.25 1886.75 1259.25 1886.75 1445.5ZM2760.55 1883V1008H2919.3V1883H2760.55ZM3401.7 1898C3225.45 1898 3092.95 1799.25 3067.95 1645.5L3219.2 1608C3249.2 1710.5 3312.95 1756.75 3405.45 1756.75C3501.7 1756.75 3561.7 1705.5 3561.7 1633C3561.7 1575.5 3524.2 1538 3405.45 1513L3319.2 1494.25C3157.95 1460.5 3080.45 1379.25 3080.45 1256.75C3080.45 1103 3205.45 993 3391.7 993C3556.7 993 3680.45 1080.5 3707.95 1230.5L3556.7 1268C3536.7 1176.75 3475.45 1134.25 3386.7 1134.25C3295.45 1134.25 3239.2 1181.75 3239.2 1250.5C3239.2 1306.75 3275.45 1338 3396.7 1364.25L3482.95 1383C3650.45 1419.25 3720.45 1498 3720.45 1619.25C3720.45 1783 3591.7 1898 3401.7 1898ZM4141.45 1898C3965.2 1898 3832.7 1799.25 3807.7 1645.5L3958.95 1608C3988.95 1710.5 4052.7 1756.75 4145.2 1756.75C4241.45 1756.75 4301.45 1705.5 4301.45 1633C4301.45 1575.5 4263.95 1538 4145.2 1513L4058.95 1494.25C3897.7 1460.5 3820.2 1379.25 3820.2 1256.75C3820.2 1103 3945.2 993 4131.45 993C4296.45 993 4420.2 1080.5 4447.7 1230.5L4296.45 1268C4276.45 1176.75 4215.2 1134.25 4126.45 1134.25C4035.2 1134.25 3978.95 1181.75 3978.95 1250.5C3978.95 1306.75 4015.2 1338 4136.45 1364.25L4222.7 1383C4390.2 1419.25 4460.2 1498 4460.2 1619.25C4460.2 1783 4331.45 1898 4141.45 1898Z" fill="#232323"/>
<defs>
<linearGradient id="paint0_linear_386_2296" x1="2592.11" y1="-256.32" x2="820.467" y2="2582.15" gradientUnits="userSpaceOnUse">
<stop/>
<stop offset="1" stop-color="#474747"/>
</linearGradient>
<linearGradient id="paint1_linear_386_2296" x1="104" y1="964.59" x2="2342" y2="964.589" gradientUnits="userSpaceOnUse">
<stop/>
<stop offset="1" stop-color="#666666"/>
</linearGradient>
</defs>
</svg>
