<svg width="3361" height="660" viewBox="0 0 3361 660" fill="none" xmlns="http://www.w3.org/2000/svg">
<g filter="url(#filter0_dd_399_2074)">
<path d="M3267 545C2778 308 2550.5 267.5 2126.82 203.753C2084.68 197.412 2044.19 192.164 2005.28 187.936C1954.08 211.038 1895.46 240.947 1824.77 278.78C1642.14 376.528 1383.02 388.719 1120.74 361.821C1064.25 404.099 1016.66 448.852 971.477 490.733C837.165 615.243 635.508 363.587 396.537 209.957C206.753 152.937 83.5958 103 94.6928 103C199.973 103 301.223 148.681 396.537 209.957C591.919 268.658 857.917 334.866 1120.74 361.821C1285.76 238.324 1526.72 135.945 2005.28 187.936C2162.84 116.842 2250.16 110.216 2403 135.5C2577.69 164.398 2738.5 232 3267 545Z" fill="url(#paint0_linear_399_2074)"/>
</g>
<g filter="url(#filter1_d_399_2074)">
<path d="M1186.58 529.6L1175.45 516.288C1169.18 519.616 1161.88 521.536 1153.94 521.536C1128.6 521.536 1109.78 502.336 1109.78 475.2C1109.78 448.064 1128.6 428.864 1153.94 428.864C1179.29 428.864 1198.1 448.064 1198.1 475.2C1198.1 489.536 1192.86 501.696 1184.15 509.888L1194.9 522.688L1186.58 529.6ZM1121.82 475.2C1121.82 496.96 1135.38 510.784 1153.94 510.784C1159.19 510.784 1163.93 509.76 1168.15 507.712L1151 487.232L1159.32 480.32L1176.86 501.184C1182.62 495.04 1186.07 486.08 1186.07 475.2C1186.07 453.44 1172.5 439.616 1153.94 439.616C1135.38 439.616 1121.82 453.44 1121.82 475.2ZM1217.16 520V430.4H1245.96C1266.7 430.4 1279.88 441.92 1279.88 460.352C1279.88 478.784 1266.7 490.304 1245.96 490.304H1228.94V520H1217.16ZM1228.94 479.552H1245.71C1260.3 479.552 1267.85 472.896 1267.85 460.352C1267.85 447.808 1260.3 441.152 1245.71 441.152H1228.94V479.552ZM1297.91 520V430.4H1309.69V520H1297.91ZM1365.04 520V430.4H1376.81V520H1365.04ZM1399.11 520V459.84H1409.22L1409.99 467.904H1410.37C1414.21 461.888 1421.38 458.304 1429.96 458.304C1443.14 458.304 1451.72 466.88 1451.72 481.984V520H1440.45V486.336C1440.45 473.024 1435.59 468.288 1426.89 468.288C1416.9 468.288 1410.37 474.56 1410.37 487.232V520H1399.11ZM1494.04 521.536C1480.09 521.536 1473.31 515.264 1473.31 499.008V469.44H1462.3V459.84H1473.31V444.608H1484.57V459.84H1501.59V469.44H1484.57V499.008C1484.57 509.12 1487.9 511.936 1496.35 511.936C1498.14 511.936 1500.19 511.808 1502.11 511.424V520.64C1500.19 521.152 1497.5 521.536 1494.04 521.536ZM1541.61 521.536C1523.69 521.536 1510.89 508.864 1510.89 490.304C1510.89 471.36 1524.21 458.304 1541.87 458.304C1558.51 458.304 1570.41 469.952 1570.41 487.744C1570.41 489.536 1570.29 490.944 1570.03 492.608H1522.41C1523.31 505.28 1531.37 511.808 1541.87 511.808C1549.29 511.808 1555.31 508.48 1558.89 501.824L1568.88 504.768C1564.91 514.88 1554.54 521.536 1541.61 521.536ZM1522.93 483.776H1559.02C1557.61 472.896 1551.09 467.648 1541.87 467.648C1532.27 467.648 1524.97 473.408 1522.93 483.776ZM1612.85 550.208C1598 550.208 1586.61 542.912 1583.8 530.624L1594.29 527.808C1596.85 535.488 1603.25 540.608 1612.98 540.608C1624.88 540.608 1632.44 533.056 1632.44 520.768V511.168H1632.05C1628.6 516.8 1620.53 520.64 1611.57 520.64C1595.32 520.64 1582.9 507.712 1582.9 489.536C1582.9 471.36 1595.44 458.304 1611.57 458.304C1620.53 458.304 1628.6 462.272 1632.05 467.904H1632.44L1633.2 459.84H1643.32V520.256C1643.32 539.072 1631.28 550.208 1612.85 550.208ZM1594.42 489.536C1594.42 502.72 1602.23 511.04 1613.49 511.04C1624.76 511.04 1632.56 502.72 1632.56 489.536C1632.56 476.352 1624.76 468.032 1613.49 468.032C1602.23 468.032 1594.42 476.352 1594.42 489.536ZM1663.23 520V459.84H1673.22L1674.11 469.056H1674.5C1677.31 462.656 1683.71 458.688 1691.14 458.688C1693.44 458.688 1695.49 459.072 1697.15 459.712V469.44C1695.36 469.184 1693.57 469.056 1691.91 469.056C1680.77 469.056 1674.5 475.328 1674.5 488.512V520H1663.23ZM1726.65 521.536C1714.24 521.536 1705.92 514.496 1705.92 504.128C1705.92 494.656 1712.7 487.872 1726.14 485.952L1740.61 483.904C1745.98 483.136 1747.26 481.984 1747.26 478.528C1747.26 472 1742.65 467.904 1734.21 467.904C1725.76 467.904 1720.25 472 1718.59 479.68L1707.71 477.504C1709.89 465.856 1719.74 458.304 1734.72 458.304C1750.08 458.304 1758.65 466.112 1758.65 481.472V520H1748.54L1747.77 511.808H1747.39C1743.29 517.824 1735.61 521.536 1726.65 521.536ZM1717.44 503.488C1717.44 508.864 1721.53 512.192 1728.7 512.192C1739.58 512.192 1747.52 504.512 1747.52 494.144V490.048C1746.37 491.2 1743.04 492.224 1738.05 492.864L1729.85 494.016C1720.77 495.296 1717.44 498.624 1717.44 503.488ZM1801.42 521.536C1787.47 521.536 1780.68 515.264 1780.68 499.008V469.44H1769.67V459.84H1780.68V444.608H1791.95V459.84H1808.97V469.44H1791.95V499.008C1791.95 509.12 1795.27 511.936 1803.72 511.936C1805.51 511.936 1807.56 511.808 1809.48 511.424V520.64C1807.56 521.152 1804.87 521.536 1801.42 521.536ZM1848.99 521.536C1831.07 521.536 1818.27 508.864 1818.27 490.304C1818.27 471.36 1831.58 458.304 1849.25 458.304C1865.89 458.304 1877.79 469.952 1877.79 487.744C1877.79 489.536 1877.66 490.944 1877.41 492.608H1829.79C1830.69 505.28 1838.75 511.808 1849.25 511.808C1856.67 511.808 1862.69 508.48 1866.27 501.824L1876.25 504.768C1872.29 514.88 1861.92 521.536 1848.99 521.536ZM1830.3 483.776H1866.4C1864.99 472.896 1858.46 467.648 1849.25 467.648C1839.65 467.648 1832.35 473.408 1830.3 483.776ZM1918.95 521.536C1902.56 521.536 1890.15 508.48 1890.15 489.92C1890.15 471.36 1902.69 458.304 1918.95 458.304C1927.27 458.304 1935.33 461.888 1938.92 467.776H1939.3V430.4H1950.56V520H1940.45L1939.68 511.936H1939.3C1935.84 517.568 1927.91 521.536 1918.95 521.536ZM1901.67 489.92C1901.67 503.488 1909.35 511.808 1920.74 511.808C1932.39 511.808 1939.81 503.488 1939.81 489.92C1939.81 476.352 1932.39 468.032 1920.74 468.032C1909.35 468.032 1901.67 476.352 1901.67 489.92ZM2030.29 521.536C2013.01 521.536 1999.44 511.68 1996.88 495.68L2008.15 492.864C2011.47 505.152 2019.28 510.912 2030.42 510.912C2042.32 510.912 2050 504.256 2050 495.04C2050 488.128 2045.52 483.52 2030.8 480.32L2022.61 478.528C2006.1 474.944 1998.42 466.88 1998.42 454.976C1998.42 439.744 2011.22 428.864 2028.88 428.864C2044.88 428.864 2057.81 437.824 2060.37 452.928L2049.11 455.744C2046.55 444.48 2038.99 439.488 2028.75 439.488C2017.49 439.488 2010.32 445.504 2010.32 454.464C2010.32 461.632 2014.8 465.6 2029.39 468.8L2037.59 470.592C2054.87 474.432 2061.91 482.112 2061.91 494.016C2061.91 510.272 2048.72 521.536 2030.29 521.536ZM2104.86 521.536C2086.94 521.536 2074.14 508.864 2074.14 490.304C2074.14 471.36 2087.46 458.304 2105.12 458.304C2121.76 458.304 2133.66 469.952 2133.66 487.744C2133.66 489.536 2133.54 490.944 2133.28 492.608H2085.66C2086.56 505.28 2094.62 511.808 2105.12 511.808C2112.54 511.808 2118.56 508.48 2122.14 501.824L2132.13 504.768C2128.16 514.88 2117.79 521.536 2104.86 521.536ZM2086.18 483.776H2122.27C2120.86 472.896 2114.34 467.648 2105.12 467.648C2095.52 467.648 2088.22 473.408 2086.18 483.776ZM2167.65 521.536C2155.24 521.536 2146.92 514.496 2146.92 504.128C2146.92 494.656 2153.7 487.872 2167.14 485.952L2181.61 483.904C2186.98 483.136 2188.26 481.984 2188.26 478.528C2188.26 472 2183.65 467.904 2175.21 467.904C2166.76 467.904 2161.25 472 2159.59 479.68L2148.71 477.504C2150.89 465.856 2160.74 458.304 2175.72 458.304C2191.08 458.304 2199.65 466.112 2199.65 481.472V520H2189.54L2188.77 511.808H2188.39C2184.29 517.824 2176.61 521.536 2167.65 521.536ZM2158.44 503.488C2158.44 508.864 2162.53 512.192 2169.7 512.192C2180.58 512.192 2188.52 504.512 2188.52 494.144V490.048C2187.37 491.2 2184.04 492.224 2179.05 492.864L2170.85 494.016C2161.77 495.296 2158.44 498.624 2158.44 503.488ZM2219.61 520V459.84H2229.59L2230.49 469.056H2230.87C2233.69 462.656 2240.09 458.688 2247.51 458.688C2249.82 458.688 2251.87 459.072 2253.53 459.712V469.44C2251.74 469.184 2249.95 469.056 2248.28 469.056C2237.15 469.056 2230.87 475.328 2230.87 488.512V520H2219.61ZM2290.86 521.536C2273.33 521.536 2260.4 508.48 2260.4 489.92C2260.4 471.36 2273.33 458.304 2290.99 458.304C2305.58 458.304 2317.23 466.88 2319.41 480.192L2308.01 481.984C2306.35 473.408 2299.57 468.032 2290.99 468.032C2280.24 468.032 2271.92 476.352 2271.92 489.92C2271.92 503.488 2280.24 511.808 2290.99 511.808C2299.69 511.808 2306.86 506.432 2308.53 497.856L2319.41 499.648C2317.36 512.576 2305.58 521.536 2290.86 521.536ZM2334.48 520V430.4H2345.75V467.904H2346.13C2350.1 461.888 2356.76 458.304 2365.33 458.304C2378.52 458.304 2387.09 466.88 2387.09 481.984V520H2375.83V486.336C2375.83 473.024 2370.96 468.288 2362.26 468.288C2352.28 468.288 2345.75 474.56 2345.75 487.232V520H2334.48ZM2466.42 521.536C2449.14 521.536 2435.57 511.68 2433.01 495.68L2444.27 492.864C2447.6 505.152 2455.41 510.912 2466.54 510.912C2478.45 510.912 2486.13 504.256 2486.13 495.04C2486.13 488.128 2481.65 483.52 2466.93 480.32L2458.74 478.528C2442.22 474.944 2434.54 466.88 2434.54 454.976C2434.54 439.744 2447.34 428.864 2465.01 428.864C2481.01 428.864 2493.94 437.824 2496.5 452.928L2485.23 455.744C2482.67 444.48 2475.12 439.488 2464.88 439.488C2453.62 439.488 2446.45 445.504 2446.45 454.464C2446.45 461.632 2450.93 465.6 2465.52 468.8L2473.71 470.592C2490.99 474.432 2498.03 482.112 2498.03 494.016C2498.03 510.272 2484.85 521.536 2466.42 521.536ZM2538.06 550.208C2524.11 550.208 2513.99 543.168 2511.82 531.776L2522.06 528.96C2524.49 536.896 2530.25 540.608 2538.19 540.608C2548.43 540.608 2554.95 534.464 2554.95 523.2V511.168H2554.57C2550.86 517.184 2543.43 520.768 2535.11 520.768C2522.31 520.768 2513.23 512.32 2513.23 497.088V459.84H2524.49V492.992C2524.49 506.048 2529.35 510.784 2538.06 510.784C2548.17 510.784 2554.57 504.384 2554.57 492.096V459.84H2565.83V523.2C2565.83 539.968 2554.95 550.208 2538.06 550.208ZM2612.74 521.536C2594.82 521.536 2582.02 508.864 2582.02 490.304C2582.02 471.36 2595.33 458.304 2613 458.304C2629.64 458.304 2641.54 469.952 2641.54 487.744C2641.54 489.536 2641.41 490.944 2641.16 492.608H2593.54C2594.44 505.28 2602.5 511.808 2613 511.808C2620.42 511.808 2626.44 508.48 2630.02 501.824L2640 504.768C2636.04 514.88 2625.67 521.536 2612.74 521.536ZM2594.05 483.776H2630.15C2628.74 472.896 2622.21 467.648 2613 467.648C2603.4 467.648 2596.1 473.408 2594.05 483.776ZM2678.09 521.536C2665.03 521.536 2655.31 515.264 2653.26 504.512L2663.5 502.08C2665.67 509.12 2670.79 512.448 2678.09 512.448C2685.9 512.448 2690.89 508.608 2690.89 503.232C2690.89 499.008 2687.82 496.32 2678.73 494.528L2671.43 493.12C2659.53 490.816 2653.9 485.44 2653.9 476.736C2653.9 466.112 2662.86 458.304 2677.32 458.304C2689.87 458.304 2698.44 464.192 2700.49 474.048L2690.12 476.48C2688.2 470.208 2683.59 467.392 2676.81 467.392C2669.26 467.392 2664.78 470.848 2664.78 476.096C2664.78 479.808 2666.95 482.112 2676.81 484.032L2684.11 485.44C2696.27 487.744 2701.77 493.12 2701.77 502.336C2701.77 513.6 2692.94 521.536 2678.09 521.536ZM2740.79 521.536C2726.84 521.536 2720.06 515.264 2720.06 499.008V469.44H2709.05V459.84H2720.06V444.608H2731.32V459.84H2748.34V469.44H2731.32V499.008C2731.32 509.12 2734.65 511.936 2743.1 511.936C2744.89 511.936 2746.94 511.808 2748.86 511.424V520.64C2746.94 521.152 2744.25 521.536 2740.79 521.536ZM2788.36 521.536C2770.44 521.536 2757.64 508.864 2757.64 490.304C2757.64 471.36 2770.96 458.304 2788.62 458.304C2805.26 458.304 2817.16 469.952 2817.16 487.744C2817.16 489.536 2817.04 490.944 2816.78 492.608H2769.16C2770.06 505.28 2778.12 511.808 2788.62 511.808C2796.04 511.808 2802.06 508.48 2805.64 501.824L2815.63 504.768C2811.66 514.88 2801.29 521.536 2788.36 521.536ZM2769.68 483.776H2805.77C2804.36 472.896 2797.84 467.648 2788.62 467.648C2779.02 467.648 2771.72 473.408 2769.68 483.776ZM2833.23 520V459.84H2843.35L2844.11 467.904H2844.5C2848.34 461.888 2855.63 458.304 2863.31 458.304C2871.38 458.304 2878.03 462.144 2881.36 469.568H2881.75C2885.71 462.912 2893.52 458.304 2902.61 458.304C2915.03 458.304 2923.6 466.88 2923.6 481.984V520H2912.34V485.824C2912.34 473.408 2907.73 468.288 2899.67 468.288C2890.45 468.288 2884.05 474.944 2884.05 486.976V520H2872.79V485.824C2872.79 473.28 2868.31 468.288 2860.24 468.288C2851.03 468.288 2844.5 474.816 2844.5 486.976V520H2833.23Z" fill="url(#paint1_linear_399_2074)"/>
</g>
<defs>
<filter id="filter0_dd_399_2074" x="50.1" y="64.1" width="3270.8" height="539.8" filterUnits="userSpaceOnUse" color-interpolation-filters="sRGB">
<feFlood flood-opacity="0" result="BackgroundImageFix"/>
<feColorMatrix in="SourceAlpha" type="matrix" values="0 0 0 0 0 0 0 0 0 0 0 0 0 0 0 0 0 0 127 0" result="hardAlpha"/>
<feOffset dx="5" dy="10"/>
<feGaussianBlur stdDeviation="24.45"/>
<feComposite in2="hardAlpha" operator="out"/>
<feColorMatrix type="matrix" values="0 0 0 0 0 0 0 0 0 0 0 0 0 0 0 0 0 0 0.25 0"/>
<feBlend mode="normal" in2="BackgroundImageFix" result="effect1_dropShadow_399_2074"/>
<feColorMatrix in="SourceAlpha" type="matrix" values="0 0 0 0 0 0 0 0 0 0 0 0 0 0 0 0 0 0 127 0" result="hardAlpha"/>
<feOffset dy="4"/>
<feGaussianBlur stdDeviation="2"/>
<feComposite in2="hardAlpha" operator="out"/>
<feColorMatrix type="matrix" values="0 0 0 0 0 0 0 0 0 0 0 0 0 0 0 0 0 0 0.25 0"/>
<feBlend mode="normal" in2="effect1_dropShadow_399_2074" result="effect2_dropShadow_399_2074"/>
<feBlend mode="normal" in="SourceGraphic" in2="effect2_dropShadow_399_2074" result="shape"/>
</filter>
<filter id="filter1_d_399_2074" x="1087.08" y="407.164" width="1859.22" height="166.744" filterUnits="userSpaceOnUse" color-interpolation-filters="sRGB">
<feFlood flood-opacity="0" result="BackgroundImageFix"/>
<feColorMatrix in="SourceAlpha" type="matrix" values="0 0 0 0 0 0 0 0 0 0 0 0 0 0 0 0 0 0 127 0" result="hardAlpha"/>
<feOffset dy="1"/>
<feGaussianBlur stdDeviation="11.35"/>
<feComposite in2="hardAlpha" operator="out"/>
<feColorMatrix type="matrix" values="0 0 0 0 0 0 0 0 0 0 0 0 0 0 0 0 0 0 0.25 0"/>
<feBlend mode="normal" in2="BackgroundImageFix" result="effect1_dropShadow_399_2074"/>
<feBlend mode="normal" in="SourceGraphic" in2="effect1_dropShadow_399_2074" result="shape"/>
</filter>
<linearGradient id="paint0_linear_399_2074" x1="94" y1="370" x2="3442" y2="370" gradientUnits="userSpaceOnUse">
<stop offset="-0.0004" stop-color="#FAFAFA"/>
<stop offset="-0.0003" stop-color="#C8C8C8"/>
<stop offset="-0.0002" stop-color="#EDEDED"/>
<stop offset="-0.0001" stop-color="#D3D3D3"/>
<stop stop-color="#FAFAFA"/>
<stop offset="0.0001" stop-color="#C8C8C8"/>
<stop offset="0.0873629" stop-color="#BFBFBF"/>
<stop offset="0.316685" stop-color="#FAFAFA"/>
<stop offset="0.571611" stop-color="#D8D8D8"/>
<stop offset="0.581731" stop-color="#FAFAFA"/>
<stop offset="1" stop-color="#BCBCBC"/>
</linearGradient>
<linearGradient id="paint1_linear_399_2074" x1="1103" y1="474.5" x2="3033" y2="474.5" gradientUnits="userSpaceOnUse">
<stop stop-color="#2B2B2B"/>
<stop offset="1" stop-color="#232323"/>
</linearGradient>
</defs>
</svg>
